<svg width="100" height="100" viewBox="0 0 100 100" fill="none" xmlns="http://www.w3.org/2000/svg">
<rect width="100" height="100" rx="50" fill="black"/>
<path d="M35.4605 56.918H39.9245C40.0485 58.654 40.5652 60.204 41.4745 61.568C42.3838 62.932 43.6238 64.0067 45.1945 64.792C46.8065 65.5773 48.6872 65.97 50.8365 65.97C52.6965 65.97 54.2465 65.7013 55.4865 65.164C56.7679 64.5853 57.7185 63.8 58.3385 62.808C58.9999 61.816 59.3305 60.6587 59.3305 59.336C59.3305 57.972 58.9999 56.8767 58.3385 56.05C57.6772 55.2233 56.7265 54.5207 55.4865 53.942C54.2465 53.3633 52.7792 52.8053 51.0845 52.268C49.4725 51.772 47.8398 51.1933 46.1865 50.532C44.5332 49.8707 42.9832 49.0647 41.5365 48.114C40.1312 47.1633 38.9945 46.0267 38.1265 44.704C37.2585 43.34 36.8245 41.7073 36.8245 39.806C36.8245 37.946 37.3205 36.21 38.3125 34.598C39.3458 32.9447 40.8338 31.622 42.7765 30.63C44.7605 29.5967 47.1372 29.08 49.9065 29.08C54.2465 29.08 57.4912 30.258 59.6405 32.614C61.7899 34.97 62.8232 38.0907 62.7405 41.976H58.2765C58.1938 39.0413 57.3672 36.9333 55.7965 35.652C54.2258 34.3707 52.1798 33.73 49.6585 33.73C47.5505 33.73 45.7112 34.226 44.1405 35.218C42.5698 36.1687 41.7845 37.6773 41.7845 39.744C41.7845 40.6533 41.9498 41.4593 42.2805 42.162C42.6525 42.8233 43.2312 43.4433 44.0165 44.022C44.8432 44.6007 45.9385 45.1793 47.3025 45.758C48.7078 46.2953 50.4232 46.8947 52.4485 47.556C53.7712 47.9693 55.1145 48.4653 56.4785 49.044C57.8838 49.6227 59.1652 50.346 60.3225 51.214C61.5212 52.082 62.4719 53.198 63.1745 54.562C63.9185 55.8847 64.2905 57.5587 64.2905 59.584C64.2905 61.5267 63.8152 63.3453 62.8645 65.04C61.9552 66.6933 60.5085 68.0367 58.5245 69.07C56.5819 70.1033 54.0605 70.62 50.9605 70.62C48.3152 70.62 46.0418 70.2687 44.1405 69.566C42.2805 68.822 40.7512 67.8713 39.5525 66.714C38.3538 65.5567 37.4238 64.358 36.7625 63.118C36.1425 61.8367 35.7292 60.638 35.5225 59.522C35.3158 58.406 35.2952 57.538 35.4605 56.918Z" fill="white"/>
</svg>
